<svg width="400" height="400" viewBox="0 0 400 400" xmlns="http://www.w3.org/2000/svg">
  <!-- Professional diverse attorney headshot -->
  <defs>
    <linearGradient id="skinGradient3" x1="0%" y1="0%" x2="100%" y2="100%">
      <stop offset="0%" style="stop-color:#D4A574;stop-opacity:1" />
      <stop offset="100%" style="stop-color:#C19A6B;stop-opacity:1" />
    </linearGradient>
    <linearGradient id="hairGradient3" x1="0%" y1="0%" x2="100%" y2="100%">
      <stop offset="0%" style="stop-color:#2C1810;stop-opacity:1" />
      <stop offset="100%" style="stop-color:#1A0E0A;stop-opacity:1" />
    </linearGradient>
    <linearGradient id="suitGradient3" x1="0%" y1="0%" x2="100%" y2="100%">
      <stop offset="0%" style="stop-color:#2C2C2C;stop-opacity:1" />
      <stop offset="100%" style="stop-color:#1A1A1A;stop-opacity:1" />
    </linearGradient>
    <radialGradient id="faceGradient3" cx="50%" cy="40%" r="60%">
      <stop offset="0%" style="stop-color:#D4A574;stop-opacity:1" />
      <stop offset="100%" style="stop-color:#C19A6B;stop-opacity:1" />
    </radialGradient>
  </defs>
  
  <!-- Background -->
  <rect width="400" height="400" fill="#F8F9FA"/>
  
  <!-- Body/Suit -->
  <path d="M95 350 Q115 320 145 320 L255 320 Q285 320 305 350 L345 400 L55 400 Z" fill="url(#suitGradient3)"/>
  
  <!-- Shirt -->
  <path d="M155 320 Q165 310 200 310 Q235 310 245 320 L265 360 L135 360 Z" fill="white"/>
  
  <!-- Tie -->
  <path d="M187 320 Q200 315 213 320 L218 380 Q200 385 182 380 Z" fill="#1B4F72"/>
  <path d="M195 340 L205 340 L210 355 L190 355 Z" fill="#2E6DA4"/>
  <path d="M197 365 L203 365 L205 375 L195 375 Z" fill="#2E6DA4"/>
  
  <!-- Neck -->
  <ellipse cx="200" cy="310" rx="24" ry="17" fill="url(#skinGradient3)"/>
  
  <!-- Face -->
  <ellipse cx="200" cy="215" rx="68" ry="88" fill="url(#faceGradient3)"/>
  
  <!-- Hair -->
  <path d="M132 175 Q137 125 167 115 Q187 110 200 110 Q213 110 233 115 Q263 125 268 175 Q273 195 268 215 Q263 235 258 250 Q253 265 243 275 Q233 285 215 288 Q200 290 185 288 Q167 285 157 275 Q147 265 142 250 Q137 235 132 215 Q127 195 132 175" fill="url(#hairGradient3)"/>
  
  <!-- Hair texture -->
  <path d="M145 165 Q160 155 175 160" stroke="#221208" stroke-width="1" fill="none" opacity="0.4"/>
  <path d="M225 160 Q240 155 255 165" stroke="#221208" stroke-width="1" fill="none" opacity="0.4"/>
  <path d="M150 180 Q165 175 180 180" stroke="#221208" stroke-width="1" fill="none" opacity="0.3"/>
  <path d="M220 180 Q235 175 250 180" stroke="#221208" stroke-width="1" fill="none" opacity="0.3"/>
  
  <!-- Eyes -->
  <ellipse cx="177" cy="200" rx="11" ry="7" fill="white"/>
  <ellipse cx="223" cy="200" rx="11" ry="7" fill="white"/>
  <circle cx="177" cy="200" r="5" fill="#3A2317"/>
  <circle cx="223" cy="200" r="5" fill="#3A2317"/>
  <circle cx="179" cy="198" r="2" fill="white"/>
  <circle cx="225" cy="198" r="2" fill="white"/>
  
  <!-- Eyelashes -->
  <path d="M166 195 Q170 193 175 195" stroke="#2C1810" stroke-width="1" fill="none"/>
  <path d="M179 195 Q183 193 188 195" stroke="#2C1810" stroke-width="1" fill="none"/>
  <path d="M212 195 Q216 193 221 195" stroke="#2C1810" stroke-width="1" fill="none"/>
  <path d="M225 195 Q229 193 234 195" stroke="#2C1810" stroke-width="1" fill="none"/>
  
  <!-- Eyebrows -->
  <path d="M167 185 Q172 180 182 182 Q187 183 184 187" fill="url(#hairGradient3)"/>
  <path d="M216 187 Q213 183 218 182 Q228 180 233 185" fill="url(#hairGradient3)"/>
  
  <!-- Nose -->
  <path d="M194 220 Q200 230 206 220 Q204 245 200 250 Q196 245 194 220" fill="#C19A6B"/>
  <ellipse cx="197" cy="240" rx="2" ry="1" fill="#B08A5F"/>
  <ellipse cx="203" cy="240" rx="2" ry="1" fill="#B08A5F"/>
  
  <!-- Mouth -->
  <path d="M183 265 Q200 275 217 265 Q212 270 200 272 Q188 270 183 265" fill="#A67C52"/>
  <path d="M188 267 Q200 272 212 267" stroke="#956B47" stroke-width="1" fill="none"/>
  
  <!-- Smile lines -->
  <path d="M177 255 Q182 260 187 265" stroke="#B08A5F" stroke-width="1" fill="none" opacity="0.4"/>
  <path d="M223 255 Q218 260 213 265" stroke="#B08A5F" stroke-width="1" fill="none" opacity="0.4"/>
  
  <!-- Cheek definition -->
  <ellipse cx="167" cy="225" rx="8" ry="12" fill="#C19A6B" opacity="0.2"/>
  <ellipse cx="233" cy="225" rx="8" ry="12" fill="#C19A6B" opacity="0.2"/>
  
  <!-- Jawline shadow -->
  <path d="M137 275 Q162 295 200 300 Q238 295 263 275" stroke="#B08A5F" stroke-width="2" fill="none" opacity="0.3"/>
  
  <!-- Facial hair (subtle) -->
  <path d="M185 280 Q200 285 215 280" stroke="#2C1810" stroke-width="1" fill="none" opacity="0.2"/>
  
  <!-- Collar -->
  <path d="M155 320 L165 300 Q200 305 235 300 L245 320" stroke="#DDDDDD" stroke-width="2" fill="none"/>
  
  <!-- Suit lapels -->
  <path d="M145 320 Q155 310 165 320" stroke="#1A1A1A" stroke-width="3" fill="none"/>
  <path d="M255 320 Q245 310 235 320" stroke="#1A1A1A" stroke-width="3" fill="none"/>
  
  <!-- Suit buttons -->
  <circle cx="200" cy="355" r="3" fill="#4A4A4A"/>
  <circle cx="200" cy="375" r="3" fill="#4A4A4A"/>
  
  <!-- Pocket square -->
  <path d="M165 340 Q170 335 175 340 L175 350 Q170 355 165 350 Z" fill="white"/>
  <path d="M167 342 Q170 340 173 342" stroke="#E0E0E0" stroke-width="1" fill="none"/>
</svg>
