<svg width="400" height="400" viewBox="0 0 400 400" xmlns="http://www.w3.org/2000/svg">
  <!-- Professional male attorney headshot -->
  <defs>
    <linearGradient id="skinGradient1" x1="0%" y1="0%" x2="100%" y2="100%">
      <stop offset="0%" style="stop-color:#F4C2A1;stop-opacity:1" />
      <stop offset="100%" style="stop-color:#E6A373;stop-opacity:1" />
    </linearGradient>
    <linearGradient id="hairGradient1" x1="0%" y1="0%" x2="100%" y2="100%">
      <stop offset="0%" style="stop-color:#4A4A4A;stop-opacity:1" />
      <stop offset="100%" style="stop-color:#2C2C2C;stop-opacity:1" />
    </linearGradient>
    <linearGradient id="suitGradient1" x1="0%" y1="0%" x2="100%" y2="100%">
      <stop offset="0%" style="stop-color:#1B365D;stop-opacity:1" />
      <stop offset="100%" style="stop-color:#0F2340;stop-opacity:1" />
    </linearGradient>
    <radialGradient id="faceGradient1" cx="50%" cy="40%" r="60%">
      <stop offset="0%" style="stop-color:#F4C2A1;stop-opacity:1" />
      <stop offset="100%" style="stop-color:#E6A373;stop-opacity:1" />
    </radialGradient>
  </defs>
  
  <!-- Background -->
  <rect width="400" height="400" fill="#F8F9FA"/>
  
  <!-- Body/Suit -->
  <path d="M100 350 Q120 320 150 320 L250 320 Q280 320 300 350 L340 400 L60 400 Z" fill="url(#suitGradient1)"/>
  
  <!-- Shirt -->
  <path d="M160 320 Q170 310 200 310 Q230 310 240 320 L260 360 L140 360 Z" fill="white"/>
  
  <!-- Tie -->
  <path d="M185 320 Q200 315 215 320 L220 380 Q200 385 180 380 Z" fill="#8B1538"/>
  <path d="M195 335 L205 335 L202 350 L198 350 Z" fill="#A51E3D"/>
  
  <!-- Neck -->
  <ellipse cx="200" cy="310" rx="25" ry="18" fill="url(#skinGradient1)"/>
  
  <!-- Face -->
  <ellipse cx="200" cy="220" rx="70" ry="90" fill="url(#faceGradient1)"/>
  
  <!-- Hair -->
  <path d="M130 180 Q135 130 165 120 Q185 115 200 115 Q215 115 235 120 Q265 130 270 180 Q275 200 265 220 Q250 140 200 140 Q150 140 135 220 Q125 200 130 180" fill="url(#hairGradient1)"/>
  
  <!-- Hair texture -->
  <path d="M145 160 Q160 150 175 155" stroke="#3A3A3A" stroke-width="1" fill="none" opacity="0.3"/>
  <path d="M225 155 Q240 150 255 160" stroke="#3A3A3A" stroke-width="1" fill="none" opacity="0.3"/>
  
  <!-- Eyes -->
  <ellipse cx="175" cy="200" rx="12" ry="8" fill="white"/>
  <ellipse cx="225" cy="200" rx="12" ry="8" fill="white"/>
  <circle cx="175" cy="200" r="6" fill="#2C5F2D"/>
  <circle cx="225" cy="200" r="6" fill="#2C5F2D"/>
  <circle cx="177" cy="198" r="2" fill="white"/>
  <circle cx="227" cy="198" r="2" fill="white"/>
  
  <!-- Eyelashes -->
  <path d="M163 195 Q167 193 172 195" stroke="#2C2C2C" stroke-width="1" fill="none"/>
  <path d="M178 195 Q182 193 187 195" stroke="#2C2C2C" stroke-width="1" fill="none"/>
  <path d="M213 195 Q217 193 222 195" stroke="#2C2C2C" stroke-width="1" fill="none"/>
  <path d="M228 195 Q232 193 237 195" stroke="#2C2C2C" stroke-width="1" fill="none"/>
  
  <!-- Eyebrows -->
  <path d="M165 185 Q170 180 180 182 Q185 183 182 187" fill="url(#hairGradient1)"/>
  <path d="M218 187 Q215 183 220 182 Q230 180 235 185" fill="url(#hairGradient1)"/>
  
  <!-- Nose -->
  <path d="M192 215 Q200 225 208 215 Q206 240 200 245 Q194 240 192 215" fill="#E6A373"/>
  <ellipse cx="196" cy="235" rx="2" ry="1" fill="#D4956F"/>
  <ellipse cx="204" cy="235" rx="2" ry="1" fill="#D4956F"/>
  
  <!-- Mouth -->
  <path d="M180 260 Q200 270 220 260 Q215 265 200 267 Q185 265 180 260" fill="#C4847D"/>
  <path d="M185 262 Q200 267 215 262" stroke="#B5736D" stroke-width="1" fill="none"/>
  
  <!-- Smile lines -->
  <path d="M175 250 Q180 255 185 260" stroke="#D4956F" stroke-width="1" fill="none" opacity="0.4"/>
  <path d="M225 250 Q220 255 215 260" stroke="#D4956F" stroke-width="1" fill="none" opacity="0.4"/>
  
  <!-- Jawline shadow -->
  <path d="M135 270 Q160 290 200 295 Q240 290 265 270" stroke="#D4956F" stroke-width="2" fill="none" opacity="0.3"/>
  
  <!-- Collar -->
  <path d="M160 320 L170 300 Q200 305 230 300 L240 320" stroke="#CCCCCC" stroke-width="2" fill="none"/>
  
  <!-- Suit lapels -->
  <path d="M150 320 Q160 310 170 320" stroke="#0F2340" stroke-width="3" fill="none"/>
  <path d="M250 320 Q240 310 230 320" stroke="#0F2340" stroke-width="3" fill="none"/>
  
  <!-- Suit buttons -->
  <circle cx="200" cy="355" r="3" fill="#2C4F6B"/>
  <circle cx="200" cy="375" r="3" fill="#2C4F6B"/>
</svg>
