<svg width="400" height="400" viewBox="0 0 400 400" xmlns="http://www.w3.org/2000/svg">
  <!-- Professional female attorney headshot -->
  <defs>
    <linearGradient id="skinGradient2" x1="0%" y1="0%" x2="100%" y2="100%">
      <stop offset="0%" style="stop-color:#F9D5B8;stop-opacity:1" />
      <stop offset="100%" style="stop-color:#E8C2A0;stop-opacity:1" />
    </linearGradient>
    <linearGradient id="hairGradient2" x1="0%" y1="0%" x2="100%" y2="100%">
      <stop offset="0%" style="stop-color:#8B4513;stop-opacity:1" />
      <stop offset="100%" style="stop-color:#654321;stop-opacity:1" />
    </linearGradient>
    <linearGradient id="blazerGradient2" x1="0%" y1="0%" x2="100%" y2="100%">
      <stop offset="0%" style="stop-color:#2C2C54;stop-opacity:1" />
      <stop offset="100%" style="stop-color:#1A1A3A;stop-opacity:1" />
    </linearGradient>
    <radialGradient id="faceGradient2" cx="50%" cy="40%" r="60%">
      <stop offset="0%" style="stop-color:#F9D5B8;stop-opacity:1" />
      <stop offset="100%" style="stop-color:#E8C2A0;stop-opacity:1" />
    </radialGradient>
  </defs>
  
  <!-- Background -->
  <rect width="400" height="400" fill="#F8F9FA"/>
  
  <!-- Body/Blazer -->
  <path d="M90 350 Q110 320 140 320 L260 320 Q290 320 310 350 L350 400 L50 400 Z" fill="url(#blazerGradient2)"/>
  
  <!-- Blouse -->
  <path d="M150 320 Q160 310 200 310 Q240 310 250 320 L270 360 L130 360 Z" fill="white"/>
  
  <!-- Necklace -->
  <ellipse cx="200" cy="315" rx="35" ry="3" fill="#D4AF37"/>
  <circle cx="200" cy="318" r="4" fill="#D4AF37"/>
  
  <!-- Neck -->
  <ellipse cx="200" cy="310" rx="22" ry="16" fill="url(#skinGradient2)"/>
  
  <!-- Face -->
  <ellipse cx="200" cy="210" rx="65" ry="85" fill="url(#faceGradient2)"/>
  
  <!-- Hair -->
  <path d="M135 170 Q140 120 170 110 Q190 105 200 105 Q210 105 230 110 Q260 120 265 170 Q270 190 275 210 Q280 230 275 250 Q270 270 260 280 Q240 290 200 285 Q160 290 140 280 Q130 270 125 250 Q120 230 125 210 Q130 190 135 170" fill="url(#hairGradient2)"/>
  
  <!-- Hair layers -->
  <path d="M145 180 Q160 170 180 175 Q200 180 220 175 Q240 170 255 180 Q265 190 260 200 Q250 210 240 205 Q220 200 200 205 Q180 200 160 205 Q150 210 140 200 Q135 190 145 180" fill="#A0522D"/>
  
  <!-- Eyes -->
  <ellipse cx="175" cy="195" rx="11" ry="7" fill="white"/>
  <ellipse cx="225" cy="195" rx="11" ry="7" fill="white"/>
  <circle cx="175" cy="195" r="5" fill="#654321"/>
  <circle cx="225" cy="195" r="5" fill="#654321"/>
  <circle cx="177" cy="193" r="2" fill="white"/>
  <circle cx="227" cy="193" r="2" fill="white"/>
  
  <!-- Eyelashes -->
  <path d="M164 190 Q168 188 173 190" stroke="#2C2C2C" stroke-width="1" fill="none"/>
  <path d="M177 190 Q181 188 186 190" stroke="#2C2C2C" stroke-width="1" fill="none"/>
  <path d="M214 190 Q218 188 223 190" stroke="#2C2C2C" stroke-width="1" fill="none"/>
  <path d="M227 190 Q231 188 236 190" stroke="#2C2C2C" stroke-width="1" fill="none"/>
  
  <!-- Eyebrows -->
  <path d="M165 180 Q170 175 180 177 Q185 178 182 182" fill="url(#hairGradient2)"/>
  <path d="M218 182 Q215 178 220 177 Q230 175 235 180" fill="url(#hairGradient2)"/>
  
  <!-- Nose -->
  <path d="M193 210 Q200 220 207 210 Q205 235 200 240 Q195 235 193 210" fill="#E8C2A0"/>
  <ellipse cx="197" cy="230" rx="1.5" ry="1" fill="#D4A587"/>
  <ellipse cx="203" cy="230" rx="1.5" ry="1" fill="#D4A587"/>
  
  <!-- Mouth -->
  <path d="M182 250 Q200 260 218 250 Q213 255 200 257 Q187 255 182 250" fill="#D4756B"/>
  <path d="M187 252 Q200 257 213 252" stroke="#C4647D" stroke-width="1" fill="none"/>
  
  <!-- Lipstick accent -->
  <path d="M185 251 Q200 258 215 251" stroke="#B85C6E" stroke-width="1" fill="none" opacity="0.6"/>
  
  <!-- Smile lines -->
  <path d="M175 240 Q180 245 185 250" stroke="#D4A587" stroke-width="1" fill="none" opacity="0.4"/>
  <path d="M225 240 Q220 245 215 250" stroke="#D4A587" stroke-width="1" fill="none" opacity="0.4"/>
  
  <!-- Cheek definition -->
  <ellipse cx="165" cy="220" rx="8" ry="12" fill="#E8C2A0" opacity="0.3"/>
  <ellipse cx="235" cy="220" rx="8" ry="12" fill="#E8C2A0" opacity="0.3"/>
  
  <!-- Jawline shadow -->
  <path d="M140 260 Q160 280 200 285 Q240 280 260 260" stroke="#D4A587" stroke-width="2" fill="none" opacity="0.3"/>
  
  <!-- Collar -->
  <path d="M150 320 L160 300 Q200 305 240 300 L250 320" stroke="#E0E0E0" stroke-width="2" fill="none"/>
  
  <!-- Blazer lapels -->
  <path d="M140 320 Q150 310 160 320" stroke="#1A1A3A" stroke-width="3" fill="none"/>
  <path d="M260 320 Q250 310 240 320" stroke="#1A1A3A" stroke-width="3" fill="none"/>
  
  <!-- Professional buttons -->
  <circle cx="200" cy="355" r="2.5" fill="#C0C0C0"/>
  <circle cx="200" cy="375" r="2.5" fill="#C0C0C0"/>
  
  <!-- Earrings -->
  <circle cx="140" cy="210" r="3" fill="#D4AF37"/>
  <circle cx="260" cy="210" r="3" fill="#D4AF37"/>
</svg>
